<svg id="Layer_1" data-name="Layer 1" xmlns="http://www.w3.org/2000/svg" viewBox="0 0 233.9 65.81"><defs><style>.cls-1{fill:#13e586;}</style></defs><path d="M74.51,89.08V72.23h-5V66l5.47-.37,1-9.65H82.8v9.65h9v6.6h-9V89.06c0,4.16,1.62,6.21,5,6.21a10.86,10.86,0,0,0,3.68-.81l1.41,6.11a23,23,0,0,1-7.23,1.29C77.53,101.86,74.51,96.71,74.51,89.08Z" transform="translate(-69.47 -50.05)"/><path class="cls-1" d="M98.31,54.74c0-2.79,2.19-4.69,5.13-4.69s5.13,1.9,5.13,4.69-2.19,4.7-5.13,4.7S98.31,57.48,98.31,54.74Zm1,10.89h8.3V101h-8.3Z" transform="translate(-69.47 -50.05)"/><path d="M118.13,65.63h6.79l.64,3.77h.23c3-2.56,6.77-4.63,10.65-4.63,8.85,0,13.92,7.08,13.92,18,0,12.1-7.23,19.09-15.1,19.09-3.14,0-6.22-1.41-9.1-3.88l.26,5.87V115h-8.29Zm23.7,17.22c0-7-2.3-11.23-7.69-11.23-2.56,0-5,1.3-7.72,4V92.07A11,11,0,0,0,133.51,95C138.23,95,141.83,90.86,141.83,82.85Z" transform="translate(-69.47 -50.05)"/><path d="M156.4,83.34c0-11.49,8-18.57,16.3-18.57,9.57,0,14.61,6.91,14.61,16.79a22.09,22.09,0,0,1-.36,4H164.49c.7,6.28,4.73,9.85,10.43,9.85a15.12,15.12,0,0,0,8.21-2.56L186,98a21.9,21.9,0,0,1-12.12,3.83C164.06,101.86,156.4,95,156.4,83.34ZM180.13,80c0-5.45-2.42-8.76-7.25-8.76-4.12,0-7.75,3.08-8.47,8.76Z" transform="translate(-69.47 -50.05)"/><path d="M195.24,65.63H202l.64,6.31h.23c2.52-4.61,6.26-7.17,10-7.17a9,9,0,0,1,4,.72l-1.44,7.2a11.8,11.8,0,0,0-3.63-.58c-2.82,0-6.22,1.93-8.35,7.32V101h-8.29Z" transform="translate(-69.47 -50.05)"/><path d="M218,79.83h17.11v6H218Z" transform="translate(-69.47 -50.05)"/><path d="M234.85,114.91l1.53-6.19a10.31,10.31,0,0,0,3.05.55c3.17,0,4.06-2.19,4.06-6.31V65.63h8.3v37.18c0,7.49-2.83,13-11.21,13A15.63,15.63,0,0,1,234.85,114.91Zm7.69-60.17c0-2.79,2.19-4.69,5.13-4.69s5.12,1.9,5.12,4.69-2.19,4.7-5.12,4.7S242.54,57.48,242.54,54.74Z" transform="translate(-69.47 -50.05)"/><path d="M258.83,96.94l3.86-5.27c3.13,2.45,6.17,3.94,9.76,3.94,3.86,0,5.67-1.81,5.67-4.23,0-3-3.83-4.29-7.6-5.73-4.64-1.74-9.94-4.41-9.94-10.31,0-6.14,5-10.57,12.88-10.57A19.08,19.08,0,0,1,285.21,69l-3.8,5.1c-2.48-1.82-5-3.08-7.75-3.08-3.56,0-5.24,1.7-5.24,3.91,0,2.8,3.57,3.86,7.4,5.28C280.6,82,286,84.29,286,90.89c0,6.08-4.81,11-13.74,11A22.09,22.09,0,0,1,258.83,96.94Z" transform="translate(-69.47 -50.05)"/><path d="M292.65,96.28a5.36,5.36,0,1,1,5.36,5.58A5.38,5.38,0,0,1,292.65,96.28Z" transform="translate(-69.47 -50.05)"/></svg>